<?xml version="1.0" encoding="UTF-8"?>
<svg width="30px" height="30px" viewBox="0 0 30 30" version="1.1" xmlns="http://www.w3.org/2000/svg" xmlns:xlink="http://www.w3.org/1999/xlink">
    <title>messages-colored-blue</title>
    <g id="messages-colored-blue" stroke="none" stroke-width="1" fill="none" fill-rule="evenodd">
        <path d="M15.5000399,4 C22.372518,4 28,8.97101311 28,15.1819841 C28,21.392955 22.372518,26.3639681 15.5000399,26.3639681 C15.3908528,26.3639681 15.2676313,26.3639929 15.1318933,26.3640389 L13.613286,26.3649222 C13.5146976,26.3649918 13.4141184,26.3650639 13.3117382,26.3651379 L12.3468101,26.3658465 C12.2353311,26.3659285 12.1226202,26.3660112 12.0088672,26.3660939 L10.9620746,26.3668305 C10.8437763,26.36691 10.7250049,26.3669883 10.6059503,26.3670648 L9.17584229,26.3678717 C9.0575574,26.3679272 8.93974817,26.367979 8.82260433,26.3680269 L6.23604641,26.368161 C6.14169124,26.3681145 6.04951928,26.3680601 5.95972023,26.3679975 L5.22072031,26.3671995 C4.77759642,26.3665025 4.44038814,26.3654589 4.25007625,26.3639681 C3.71382798,26.3602404 2.99383033,25.9514782 3.00003989,25.1215267 C3.00633029,24.2915729 3.70132067,23.9884173 3.89882004,23.879083 C4.53256803,23.5299562 4.85258894,22.9348267 4.95258868,22.3260295 C5.05133837,21.7371113 4.89632424,21.1220982 4.71882482,20.8500032 C3.60507832,19.1515843 3.00003989,17.1984692 3.00003989,15.1819841 C3.00003989,8.97101311 8.62756243,4 15.5000399,4 Z M9.8148946,13 C8.81260006,13 8.00007979,13.7835017 8.00007979,14.75 C8.00007979,15.7164983 8.81260006,16.5 9.8148946,16.5 C10.8171891,16.5 11.6297094,15.7164983 11.6297094,14.75 C11.6297094,13.7835017 10.8171891,13 9.8148946,13 Z M15.3149345,13 C14.3126399,13 13.5001197,13.7835017 13.5001197,14.75 C13.5001197,15.7164983 14.3126399,16.5 15.3149345,16.5 C16.317229,16.5 17.1297493,15.7164983 17.1297493,14.75 C17.1297493,13.7835017 16.317229,13 15.3149345,13 Z M20.8149345,13 C19.8126399,13 19.0001197,13.7835017 19.0001197,14.75 C19.0001197,15.7164983 19.8126399,16.5 20.8149345,16.5 C21.817229,16.5 22.6297493,15.7164983 22.6297493,14.75 C22.6297493,13.7835017 21.817229,13 20.8149345,13 Z" id="Combined-Shape-Copy" fill="#3998DB" fill-rule="nonzero"></path>
    </g>
</svg>