<?xml version="1.0" encoding="UTF-8"?>
<svg width="30px" height="30px" viewBox="0 0 30 30" version="1.1" xmlns="http://www.w3.org/2000/svg" xmlns:xlink="http://www.w3.org/1999/xlink">
    <title>styles-colored-blue</title>
    <g id="styles-colored-blue" stroke="none" stroke-width="1" fill="none" fill-rule="evenodd">
        <g id="pencil-square-fill-copy" transform="translate(3, 3)" fill-rule="nonzero">
            <path d="M18.4210526,0 C18.072368,0 17.7223758,0.123691912 17.4750077,0.369744552 C15.5013235,2.34342876 15.5013235,2.34342876 14.8434288,3.0013235 L5.63290245,12.2118498 C5.38685008,12.4592179 5.26315789,12.8092101 5.26315789,13.1578947 L5.26315789,18.4210526 C5.26315789,19.1473685 5.85263152,19.7368421 6.57894737,19.7368421 C7.23684211,19.7368421 11.1842105,19.7368421 11.8421053,19.7368421 C12.1907899,19.7368421 12.5407821,19.6131505 12.7881502,19.3670976 L21.9986765,10.1565712 C22.6565712,9.4986765 22.6565712,9.4986765 24.6302554,7.52499229 C24.8763084,7.2776236 25,6.9276314 25,6.57894737 C25,4.42631558 24.4513085,2.88817318 23.314466,1.72633121 C22.1657828,0.555278596 20.6328944,0 18.4210526,0 Z M18.9565759,2.65655518 C20.1434186,2.72629198 20.8947445,2.99735289 21.4223761,3.53682669 C21.9618496,4.08682666 22.272361,4.91711748 22.3447298,6.08159115 C21.7013083,6.725012 21.3026298,7.10659592 21.0578918,7.35264828 C20.0144705,6.31054326 18.6907818,4.99865977 17.6486768,3.95523874 C17.8947298,3.70918606 18.3131544,3.29997634 18.9565759,2.65655518 Z M11.2657848,17.1052632 C10.4342059,17.1052632 9.10657895,17.1052632 7.89473684,17.1052632 L7.89473684,13.7341951 L11.2657848,17.1052632 Z" id="Vector" fill="#3998DB" opacity="0.986783981"></path>
            <path d="M16.5289628,1.31578947 L14.8434288,3.0013235 L5.63290245,12.2118498 C5.38685447,12.4592028 5.26315789,12.8091913 5.26315789,13.1578947 L5.26315789,18.4210526 C5.26315789,19.147371 5.85262901,19.7368421 6.57894737,19.7368421 L11.8421053,19.7368421 C12.1907887,19.7368421 12.5407771,19.6131656 12.7881502,19.3670976 L21.9986765,10.1565712 L23.6842105,8.47103721 L23.6842105,19.7368421 C23.6842105,22.6436013 21.3278118,25 18.4210526,25 L5.26315789,25 C2.35639873,25 0,22.6436013 0,19.7368421 L0,6.57894737 C0,3.67218821 2.35639873,1.31578947 5.26315789,1.31578947 L16.5289628,1.31578947 Z" id="Subtract" fill="#5EB4EE"></path>
        </g>
    </g>
</svg>