<?xml version="1.0" encoding="UTF-8"?>
<svg width="102px" height="102px" viewBox="0 0 102 102" version="1.1" xmlns="http://www.w3.org/2000/svg" xmlns:xlink="http://www.w3.org/1999/xlink">
    <title>announcement-icon</title>
    <defs>
        <rect id="path-1" x="0" y="0" width="54" height="54" rx="27"></rect>
        <filter x="-68.5%" y="-64.8%" width="237.0%" height="237.0%" filterUnits="objectBoundingBox" id="filter-2">
            <feOffset dx="0" dy="2" in="SourceAlpha" result="shadowOffsetOuter1"></feOffset>
            <feGaussianBlur stdDeviation="12" in="shadowOffsetOuter1" result="shadowBlurOuter1"></feGaussianBlur>
            <feColorMatrix values="0 0 0 0 0   0 0 0 0 0   0 0 0 0 0  0 0 0 0.262831895 0" type="matrix" in="shadowBlurOuter1"></feColorMatrix>
        </filter>
    </defs>
    <g id="License-Notifications" stroke="none" stroke-width="1" fill="none" fill-rule="evenodd">
        <g id="licensed-community" transform="translate(-162, -2827)">
            <g id="announcement-icon" transform="translate(186, 2849)">
                <g id="Rectangle-Copy-10">
                    <use fill="black" fill-opacity="1" filter="url(#filter-2)" xlink:href="#path-1"></use>
                    <use fill="#1E293B" fill-rule="evenodd" xlink:href="#path-1"></use>
                </g>
                <g id="Group-16" transform="translate(13, 13)" fill="#F58320" fill-rule="nonzero">
                    <path d="M14,0 C21.7286034,0.00816154255 27.9918385,6.27139665 28,14 C28,21.7319865 21.7319865,28 14,28 C6.2680135,28 0,21.7319865 0,14 C0,6.2680135 6.2680135,0 14,0 Z M14.0555627,18.8977273 C13.6041578,18.8977273 13.2173641,19.0573037 12.8951817,19.3764565 C12.5729993,19.6956094 12.412918,20.0789074 12.4149188,20.5263505 C12.412918,20.9797752 12.5729993,21.3665882 12.8951817,21.6867898 C13.2173641,22.0069913 13.6041578,22.1670921 14.0555627,22.1670921 C14.3518385,22.1670921 14.6230232,22.0932562 14.869117,21.9455844 C15.1152107,21.7979126 15.3140743,21.5997869 15.4657079,21.3512074 C15.6173414,21.1026278 15.694168,20.8276756 15.6961877,20.5263505 C15.694168,20.0789074 15.5300861,19.6956094 15.203942,19.3764565 C14.8777978,19.0573037 14.4950047,18.8977273 14.0555627,18.8977273 Z M14.4015155,6.51846591 C13.532497,6.51846591 12.7392952,6.67806175 12.0219101,6.99725342 C11.3045251,7.31644509 10.7283255,7.79321289 10.2933113,8.42755682 C9.85829709,9.06190075 9.62684623,9.85141269 9.59895871,10.7960926 L12.2539048,10.7960926 C12.2777529,10.3287631 12.3930899,9.94247437 12.5999159,9.63722645 C12.8067418,9.33197854 13.0687408,9.10377086 13.3859127,8.95260343 C13.7030847,8.80143599 14.0376572,8.72585227 14.3896303,8.72585227 C14.7694909,8.72585227 15.1150165,8.80491222 15.426207,8.96303212 C15.7373975,9.12115201 15.9854722,9.34537853 16.1704309,9.63571167 C16.3553896,9.92604481 16.447869,10.2670843 16.447869,10.6588301 C16.447869,11.0058316 16.3775093,11.3200323 16.23679,11.6014321 C16.0960706,11.8828319 15.9054024,12.1361306 15.6647851,12.3613281 C15.4241679,12.5865257 15.1522258,12.7945945 14.8489587,12.9855347 C14.4095167,13.2569525 14.0346665,13.5562383 13.7244081,13.8833923 C13.4141498,14.2105463 13.1765039,14.640084 13.0114704,15.1720054 C12.8464368,15.7039268 12.7609294,16.4188454 12.7549479,17.3167614 L12.7549479,17.5135665 L15.2368593,17.5135665 L15.2368593,17.3167614 C15.2427631,16.787753 15.3063839,16.3432811 15.4277218,15.9833457 C15.5490597,15.6234103 15.7374946,15.3089572 15.9930266,15.0399864 C16.2485587,14.7710155 16.57915,14.5127453 16.9848008,14.2651756 C17.4421871,13.9907282 17.8371761,13.6800038 18.1697678,13.3330023 C18.5023595,12.9860008 18.7598918,12.5887784 18.9423647,12.1413352 C19.1248376,11.693892 19.2160741,11.1857799 19.2160741,10.6169988 C19.2160741,9.77780984 19.0129768,9.05147206 18.6067823,8.43798551 C18.2005878,7.82449896 17.6358073,7.35120739 16.9124408,7.0181108 C16.1890743,6.6850142 15.3520992,6.51846591 14.4015155,6.51846591 Z" id="Combined-Shape"></path>
                </g>
            </g>
        </g>
    </g>
</svg>