<?xml version="1.0" encoding="UTF-8"?>
<!--
  - Copyright (c) 2024, FusionAuth, All Rights Reserved
  -->
<svg xmlns:xlink="http://www.w3.org/1999/xlink" width="776px" height="179px" viewBox="0 0 776 179" version="1.1" xmlns="http://www.w3.org/2000/svg">
  <title>Mask</title>
  <defs>
    <rect id="path-1" x="0" y="0" width="775.44" height="178.56" rx="2.88"></rect>
    <linearGradient x1="58.4474365%" y1="49.5180423%" x2="89.4776429%" y2="52.1709757%" id="linearGradient-3">
      <stop stop-color="#64748B" stop-opacity="0.697197334" offset="0%"></stop>
      <stop stop-color="#AEB8C5" stop-opacity="0.504998907" offset="47.1481643%"></stop>
      <stop stop-color="#BEC1C4" stop-opacity="0.498552229" offset="100%"></stop>
    </linearGradient>
    <linearGradient x1="58.4474365%" y1="49.5124829%" x2="89.4776429%" y2="52.1960181%" id="linearGradient-4">
      <stop stop-color="#64748B" stop-opacity="0.697197334" offset="0%"></stop>
      <stop stop-color="#AEB8C5" stop-opacity="0.504998907" offset="47.1481643%"></stop>
      <stop stop-color="#BEC1C4" stop-opacity="0.498552229" offset="100%"></stop>
    </linearGradient>
    <linearGradient x1="58.4474365%" y1="49.5069771%" x2="89.4776429%" y2="52.2208192%" id="linearGradient-5">
      <stop stop-color="#64748B" stop-opacity="0.697197334" offset="0%"></stop>
      <stop stop-color="#AEB8C5" stop-opacity="0.504998907" offset="47.1481643%"></stop>
      <stop stop-color="#BEC1C4" stop-opacity="0.498552229" offset="100%"></stop>
    </linearGradient>
    <linearGradient x1="58.4474365%" y1="49.501377%" x2="89.4776429%" y2="52.2460446%" id="linearGradient-6">
      <stop stop-color="#64748B" stop-opacity="0.697197334" offset="0%"></stop>
      <stop stop-color="#AEB8C5" stop-opacity="0.504998907" offset="47.1481643%"></stop>
      <stop stop-color="#BEC1C4" stop-opacity="0.498552229" offset="100%"></stop>
    </linearGradient>
    <linearGradient x1="58.4474365%" y1="49.4961585%" x2="89.4776429%" y2="52.2695513%" id="linearGradient-7">
      <stop stop-color="#64748B" stop-opacity="0.697197334" offset="0%"></stop>
      <stop stop-color="#AEB8C5" stop-opacity="0.504998907" offset="47.1481643%"></stop>
      <stop stop-color="#BEC1C4" stop-opacity="0.498552229" offset="100%"></stop>
    </linearGradient>
    <linearGradient x1="58.4474365%" y1="49.4596122%" x2="89.4776429%" y2="52.4341741%" id="linearGradient-8">
      <stop stop-color="#64748B" stop-opacity="0.697197334" offset="0%"></stop>
      <stop stop-color="#AEB8C5" stop-opacity="0.504998907" offset="47.1481643%"></stop>
      <stop stop-color="#BEC1C4" stop-opacity="0.498552229" offset="100%"></stop>
    </linearGradient>
    <linearGradient x1="58.4474365%" y1="49.4105825%" x2="89.4776429%" y2="52.6550281%" id="linearGradient-9">
      <stop stop-color="#64748B" stop-opacity="0.697197334" offset="0%"></stop>
      <stop stop-color="#AEB8C5" stop-opacity="0.504998907" offset="47.1481643%"></stop>
      <stop stop-color="#BEC1C4" stop-opacity="0.498552229" offset="100%"></stop>
    </linearGradient>
    <linearGradient x1="58.4474365%" y1="49.3576049%" x2="89.4776429%" y2="52.8936655%" id="linearGradient-10">
      <stop stop-color="#64748B" stop-opacity="0.697197334" offset="0%"></stop>
      <stop stop-color="#AEB8C5" stop-opacity="0.504998907" offset="47.1481643%"></stop>
      <stop stop-color="#BEC1C4" stop-opacity="0.498552229" offset="100%"></stop>
    </linearGradient>
    <linearGradient x1="58.4474365%" y1="49.302907%" x2="89.4776429%" y2="53.1400519%" id="linearGradient-11">
      <stop stop-color="#64748B" stop-opacity="0.697197334" offset="0%"></stop>
      <stop stop-color="#AEB8C5" stop-opacity="0.504998907" offset="47.1481643%"></stop>
      <stop stop-color="#BEC1C4" stop-opacity="0.498552229" offset="100%"></stop>
    </linearGradient>
  </defs>
  <g id="Setup-Wizard" stroke="none" stroke-width="1" fill="none" fill-rule="evenodd">
    <g id="Group-11-Copy" transform="translate(0, 0)">
      <mask id="mask-2" fill="white">
        <use xlink:href="#path-1"></use>
      </mask>
      <g id="Mask"></g>
      <g id="Group-19" mask="url(#mask-2)">
        <g transform="translate(920.0155, 63.7633) scale(-1, 1) rotate(15) translate(-920.0155, -63.7633)translate(-196.041, -527.7583)">
          <path d="M34.2454023,318.89733 C277.581059,381.396248 303.582167,388.652944 458.244298,442.535948 C612.911733,496.420373 753.55896,539.619644 935.281765,560.56935 C1117.00353,581.522917 1240.22878,549.93343 1345.53834,615.947103 C1450.84789,681.960775 1473.29926,723.256236 1574.35408,744.303475 C1675.40359,765.349294 1793.89528,748.434339 1861.81327,765.879638 C1929.73657,783.326358 1814.31629,785.469073 1998.61021,842.139011" id="Stroke-1" stroke="url(#linearGradient-3)" stroke-width="0.18" transform="translate(1016.4278, 580.5182) rotate(-15) translate(-1016.4278, -580.5182)"></path>
          <path d="M45.3750931,323.232788 C288.480989,385.658576 314.193748,367.779287 468.691303,421.671432 C623.194157,475.564998 757.364251,550.637406 938.948117,571.435322 C1120.53302,592.22936 1244.02768,536.248508 1349.18678,602.383603 C1454.34587,668.518698 1436.8903,717.831184 1537.85083,738.827353 C1638.81666,759.824943 1764.70123,734.241354 1843.42173,754.794094 C1911.19122,772.491494 1835.81756,806.106143 2022.52976,852.910026" id="Stroke-3" stroke="url(#linearGradient-4)" stroke-width="0.20232" transform="translate(1033.9524, 588.0714) rotate(-15) translate(-1033.9524, -588.0714)"></path>
          <path d="M51.3219018,326.388673 C294.710277,388.90354 320.113867,346.127236 474.817974,400.013095 C629.516775,453.897532 757.613612,560.569066 939.369005,581.550353 C1121.12543,602.527782 1244.89595,522.992431 1350.24233,588.990475 C1455.58341,654.987098 1398.32662,711.836106 1499.39693,732.891564 C1600.47255,753.948444 1734.18939,718.968291 1823.53643,743.988273 C1891.04542,762.892056 1855.97866,826.559576 2045.49857,863.634355" id="Stroke-5" stroke="url(#linearGradient-5)" stroke-width="0.22536" transform="translate(1048.4102, 595.0115) rotate(-15) translate(-1048.4102, -595.0115)"></path>
          <path d="M62.5063436,329.452243 C305.98107,391.953108 331.342299,323.200206 486.052726,377.262915 C640.758893,431.320291 762.246934,571.099011 944.15418,591.735622 C1126.06038,612.376146 1250.6023,507.094857 1355.84998,573.585831 C1461.09765,640.076805 1363.64243,705.868846 1464.77038,726.856882 C1565.89833,747.844918 1707.57045,702.638849 1807.62257,731.611293 C1874.97075,751.116326 1879.74371,846.908335 2071.99205,873.888222" id="Stroke-7" stroke="url(#linearGradient-6)" stroke-width="0.24768" transform="translate(1067.2492, 601.6702) rotate(-15) translate(-1067.2492, -601.6702)"></path>
          <path d="M72.7459804,329.259571 C315.981005,391.741718 340.705321,299.214833 495.319683,353.042233 C649.935075,406.865786 765.457311,576.579544 947.082275,597.611797 C1128.70827,618.640204 1252.83977,491.564513 1358.13961,557.428899 C1463.44372,623.298552 1326.61359,695.422806 1427.62248,716.480485 C1528.62608,737.536744 1677.49641,684.352351 1788.10309,717.263182 C1855.23432,737.238344 1900.49445,862.482949 2095.04919,880.027928" id="Stroke-9" stroke="url(#linearGradient-7)" stroke-width="0.27" transform="translate(1083.8976, 604.6437) rotate(-15) translate(-1083.8976, -604.6437)"></path>
          <path d="M80.0032788,333.000911 C323.221331,395.452025 347.934379,276.843142 502.503949,330.776344 C657.072478,384.713431 765.890107,587.639273 947.566037,608.413343 C1129.24301,629.183528 1254.0768,476.489553 1359.27289,542.696503 C1464.46794,608.907337 1287.51753,689.942964 1388.53152,710.942912 C1489.54021,731.941439 1646.32959,668.471252 1767.53504,705.507524 C1834.5066,725.967439 1919.53178,883.399127 2116.76257,890.757345" id="Stroke-11" stroke="url(#linearGradient-8)" stroke-width="0.29232" transform="translate(1098.3829, 603.5218) rotate(-15) translate(-1098.3829, -603.5218)"></path>
          <path d="M88.2484287,337.978886 C331.742653,400.504946 356.17784,256.770373 510.922914,310.746241 C665.672254,364.727415 768.334032,599.579292 950.202361,620.410473 C1132.07496,641.24696 1257.29031,464.495139 1362.61939,530.728641 C1467.94951,596.95826 1250.94434,685.797272 1352.07015,706.833458 C1453.1917,727.864339 1617.86197,654.958725 1749.80395,696.214698 C1816.71718,717.136779 1941.9836,905.75384 2142.02611,903.317235" id="Stroke-13" stroke="url(#linearGradient-9)" stroke-width="0.31536" transform="translate(1115.1373, 600.8509) rotate(-15) translate(-1115.1373, -600.8509)"></path>
          <path d="M95.4837023,343.059835 C338.55543,405.475962 362.707232,236.781807 517.181906,290.670153 C671.661878,344.559919 767.774515,611.00276 949.336017,631.785329 C1130.89648,652.571776 1256.22726,451.912562 1361.37366,518.051338 C1466.51581,584.184817 1210.02754,680.829895 1310.97428,701.821241 C1411.92528,722.817885 1584.09343,640.400911 1726.33957,685.845048 C1793.01968,707.145899 1958.05197,926.685599 2160.35955,914.376218" id="Stroke-15" stroke="url(#linearGradient-10)" stroke-width="0.33768" transform="translate(1127.9216, 597.3769) rotate(-15) translate(-1127.9216, -597.3769)"></path>
          <path d="M99.3720271,344.758891 C342.715962,407.252699 366.489831,213.742529 521.153023,267.659551 C675.810912,321.575151 765.885044,619.512045 947.630259,640.396685 C1129.37651,661.277453 1254.97342,436.949549 1360.2604,503.059652 C1465.54739,569.169756 1169.02305,673.324189 1270.07826,694.359333 C1371.13981,715.392026 1551.21184,623.585243 1704.1415,673.406443 C1770.78816,695.115638 1976.18702,945.600167 2181.27533,923.623361" id="Stroke-17" stroke="url(#linearGradient-11)" stroke-width="0.36" transform="translate(1140.3237, 591.5216) rotate(-15) translate(-1140.3237, -591.5216)"></path>
        </g>
      </g>
    </g>
  </g>
</svg>
