<svg width="20" height="25" viewBox="0 0 20 25" xmlns="http://www.w3.org/2000/svg">
    <g fill="none" fill-rule="evenodd">
        <path d="M13.413.011a6.576 6.576 0 0 1 6.576 6.576V22.37a2.63 2.63 0 0 1-2.63 2.63H2.63A2.63 2.63 0 0 1 0 22.37V2.642A2.63 2.63 0 0 1 2.63.012h10.783zm1.263 17.098H5.313a1.315 1.315 0 1 0 0 2.63h9.363a1.315 1.315 0 0 0 0-2.63zm0-5.261H5.313a1.315 1.315 0 1 0 0 2.63h9.363a1.315 1.315 0 0 0 0-2.63zM6.68 6.588H5.313a1.315 1.315 0 0 0 0 2.63H6.68a1.315 1.315 0 1 0 0-2.63z" fill="#94A3B8" fill-rule="nonzero"/>
        <path d="M19.989 7.893c0-.474.002-.76.005-.86.176-5.662-3.757-7.182-7.33-7.022v6.294c0 .856.292 1.686 1.727 1.588h5.598z" fill="#64748B"/>
    </g>
</svg>
