<svg width="25" height="25" viewBox="0 0 25 25" xmlns="http://www.w3.org/2000/svg">
    <g fill="none" fill-rule="evenodd">
        <path d="M10.075 22.368h10.978c.726 0 1.315-.589 1.315-1.315V18.42c0-.727-.589-1.316-1.315-1.316h-5.715l-5.263 5.263zm7.895-7.894h3.083A3.947 3.947 0 0 1 25 18.42v2.632A3.947 3.947 0 0 1 21.053 25H5.263v-.062c1.454 0 2.77-.589 3.722-1.541l.449-.449a5.24 5.24 0 0 0 1.092-3.211V7.03l2.18-2.18a3.947 3.947 0 0 1 5.583 0l1.86 1.861a3.947 3.947 0 0 1 0 5.583l-2.18 2.18z" fill="#94A3B8"/>
        <path d="M3.947 0A3.947 3.947 0 0 0 0 3.947v15.79a5.263 5.263 0 0 0 10.526 0V3.947A3.947 3.947 0 0 0 6.58 0H3.947zm1.316 22.368a2.632 2.632 0 1 0 0-5.263 2.632 2.632 0 0 0 0 5.263z" fill="#64748B"/>
    </g>
</svg>
