<?xml version="1.0" encoding="UTF-8"?>
<svg width="30px" height="30px" viewBox="0 0 30 30" version="1.1" xmlns="http://www.w3.org/2000/svg" xmlns:xlink="http://www.w3.org/1999/xlink">
    <title>page-view</title>
    <g id="page-view" stroke="none" stroke-width="1" fill="none" fill-rule="evenodd">
        <g id="file-earmark-text-fill-copy" transform="translate(5, 2)">
            <path d="M13.4126276,0.0112535224 C17.0444444,0.0112535224 19.9886136,2.9554227 19.9886136,6.58723944 L19.9886136,22.3696056 C19.9886136,23.8223323 18.8109459,25 17.3582192,25 L2.63039437,25 C1.17766767,25 -3.55135355e-16,23.8223323 -4.4408921e-16,22.3696056 L0,2.64164789 C-1.7790771e-16,1.18892119 1.17766767,0.0112535224 2.63039437,0.0112535224 L13.4126276,0.0112535224 Z M14.6756937,17.1088169 L5.31291989,17.1088169 C4.58655655,17.1088169 3.99772271,17.6976507 3.99772271,18.4240141 C3.99772271,19.1503774 4.58655655,19.7392113 5.31291989,19.7392113 L14.6756937,19.7392113 C15.402057,19.7392113 15.9908908,19.1503774 15.9908908,18.4240141 C15.9908908,17.6976507 15.402057,17.1088169 14.6756937,17.1088169 Z M14.6756937,11.8480282 L5.31291989,11.8480282 C4.58655655,11.8480282 3.99772271,12.436862 3.99772271,13.1632254 C3.99772271,13.8895887 4.58655655,14.4784225 5.31291989,14.4784225 L14.6756937,14.4784225 C15.402057,14.4784225 15.9908908,13.8895887 15.9908908,13.1632254 C15.9908908,12.436862 15.402057,11.8480282 14.6756937,11.8480282 Z M6.68024824,6.58723944 L5.31291989,6.58723944 C4.58655655,6.58723944 3.99772271,7.17607327 3.99772271,7.90243662 C3.99772271,8.62879997 4.58655655,9.2176338 5.31291989,9.2176338 L6.68024824,9.2176338 C7.40661159,9.2176338 7.99544542,8.62879997 7.99544542,7.90243662 C7.99544542,7.17607327 7.40661159,6.58723944 6.68024824,6.58723944 Z" id="Combined-Shape" fill="#94A3B8" fill-rule="nonzero"></path>
            <path d="M19.9886136,7.89338246 C19.989337,7.41885937 19.991236,7.13209762 19.9943107,7.03309722 C20.1701721,1.37067385 16.2367933,-0.149335933 12.6630659,0.0112535224 C12.6630659,1.2410064 12.6630659,2.56546198 12.6630659,3.79521485 C12.6631582,4.41009151 12.6630659,5.68931954 12.6630659,6.3041959 C12.6631582,7.16063137 12.9558025,7.99081749 14.391364,7.89338246 C15.0061683,7.89338246 15.711754,7.89339855 16.3265583,7.89338246 C17.1462973,7.89336101 18.3669824,7.89336101 19.9886136,7.89338246 Z" id="Union" fill="#64748B"></path>
        </g>
    </g>
</svg>