<?xml version="1.0" encoding="UTF-8"?>
<svg width="30px" height="30px" viewBox="0 0 30 30" version="1.1" xmlns="http://www.w3.org/2000/svg" xmlns:xlink="http://www.w3.org/1999/xlink">
    <title>pre-built</title>
    <g id="pre-built" stroke="none" stroke-width="1" fill="none" fill-rule="evenodd">
        <g id="pallet2-copy" transform="translate(2, 3)">
            <path d="M10.0748186,22.3684211 L21.0526314,22.3684211 C21.7793225,22.3684211 22.3684209,21.7793226 22.3684209,21.0526316 L22.3684209,18.4210526 C22.3684209,17.6943628 21.7793225,17.1052632 21.0526314,17.1052632 L15.3379862,17.1052632 L10.0748186,22.3684211 Z M17.9695703,14.4736842 L21.0526314,14.4736842 C23.2327034,14.4736842 25,16.240982 25,18.4210526 L25,21.0526316 C25,23.2327035 23.2327021,25 21.0526314,25 L5.26315816,25 L5.26315816,24.9383224 C6.71661812,24.9383224 8.03248797,24.3491524 8.98493762,23.3966024 L9.43354541,22.9479953 C10.1187604,22.0594105 10.5263163,20.9457184 10.5263163,19.7368421 L10.5263163,7.03045694 L12.7063958,4.85038757 C14.2479352,3.30884833 16.7472848,3.30884833 18.2888241,4.85038757 L20.1496335,6.7111969 C21.6911728,8.25273614 21.6911728,10.7520756 20.1496335,12.2936249 L17.9695703,14.4736842 Z" id="Union" fill="#94A3B8"></path>
            <path d="M3.94736862,0 C1.7672891,0 0,1.76729905 0,3.94736842 L0,19.7368421 C0,22.6436013 2.35639885,25 5.26315816,25 C8.16991747,25 10.5263163,22.6436013 10.5263163,19.7368421 L10.5263163,3.94736842 C10.5263163,1.76729905 8.75902722,0 6.5789477,0 L3.94736862,0 Z M5.26315816,22.3684211 C6.71653781,22.3684211 7.89473724,21.1902217 7.89473724,19.7368421 C7.89473724,18.2834625 6.71653781,17.1052632 5.26315816,17.1052632 C3.80977851,17.1052632 2.63157908,18.2834625 2.63157908,19.7368421 C2.63157908,21.1902217 3.80977851,22.3684211 5.26315816,22.3684211 Z" id="Subtract" fill="#64748B"></path>
        </g>
    </g>
</svg>