<svg width="25" height="25" viewBox="0 0 25 25" xmlns="http://www.w3.org/2000/svg">
    <g fill-rule="nonzero" fill="none">
        <path d="M18.421 0c-.349 0-.699.124-.946.37L14.843 3l-9.21 9.21c-.246.248-.37.598-.37.947v5.263c0 .726.59 1.316 1.316 1.316h5.263c.349 0 .699-.124.946-.37l9.21-9.21 2.632-2.632c.246-.247.37-.597.37-.946 0-2.153-.549-3.69-1.686-4.853C22.166.556 20.633 0 18.421 0zm.536 2.657c1.186.07 1.938.34 2.465.88.54.55.85 1.38.923 2.545-.644.643-1.042 1.025-1.287 1.27C20.014 6.312 18.69 5 17.648 3.956c.247-.246.665-.655 1.309-1.298zm-7.691 14.448H7.895v-3.37l3.37 3.37z" fill="#64748B" opacity=".987"/>
        <path d="M16.529 1.316 14.843 3l-9.21 9.21c-.246.248-.37.598-.37.947v5.263c0 .726.59 1.316 1.316 1.316h5.263c.349 0 .699-.124.946-.37l9.21-9.21 1.686-1.686v11.266A5.263 5.263 0 0 1 18.421 25H5.263A5.263 5.263 0 0 1 0 19.737V6.579a5.263 5.263 0 0 1 5.263-5.263H16.53z" fill="#94A3B8"/>
    </g>
</svg>
